<?xml version="1.0" encoding="utf-8"?>
<!-- Generator: Adobe Illustrator 16.0.0, SVG Export Plug-In . SVG Version: 6.00 Build 0)  -->
<!DOCTYPE svg PUBLIC "-//W3C//DTD SVG 1.1//EN" "http://www.w3.org/Graphics/SVG/1.1/DTD/svg11.dtd">
<svg version="1.1" id="Layer_1" xmlns="http://www.w3.org/2000/svg" xmlns:xlink="http://www.w3.org/1999/xlink" x="0px" y="0px"
	 width="50px" height="50px" viewBox="0 0 50 50" enable-background="new 0 0 50 50" xml:space="preserve">
<rect x="-67.013" y="0.107" fill-rule="evenodd" clip-rule="evenodd" fill="#550F0E" width="50" height="50"/>
<path d="M47.361,27.547c0,4.554-1.343,8.946-3.888,12.706l-2.938-1.99c2.144-3.167,3.278-6.874,3.278-10.716
	c0-10.558-8.592-19.146-19.152-19.146S5.509,16.989,5.509,27.547c0,3.842,1.134,7.549,3.279,10.716l-2.936,1.99
	c-2.545-3.76-3.89-8.152-3.89-12.706c0-6.062,2.362-11.761,6.649-16.047c4.287-4.287,9.988-6.646,16.051-6.646
	c6.063,0,11.765,2.36,16.052,6.646C45.001,15.786,47.361,21.485,47.361,27.547z M26.436,13.721c0-0.979-0.794-1.773-1.773-1.773
	s-1.772,0.794-1.772,1.773s0.793,1.773,1.772,1.773S26.436,14.7,26.436,13.721z M10.83,25.779c-0.979,0-1.773,0.795-1.773,1.773
	c0,0.979,0.794,1.773,1.773,1.773s1.773-0.794,1.773-1.773C12.603,26.574,11.809,25.779,10.83,25.779z M16.682,17.799
	c0-0.979-0.794-1.773-1.773-1.773s-1.774,0.794-1.774,1.773s0.794,1.773,1.774,1.773S16.682,18.779,16.682,17.799z M38.495,25.779
	c-0.979,0-1.773,0.795-1.773,1.773c0,0.979,0.795,1.773,1.773,1.773s1.773-0.794,1.773-1.773
	C40.269,26.574,39.474,25.779,38.495,25.779z M24.974,24.732c-0.103-0.011-0.207-0.017-0.312-0.017
	c-1.567,0-2.837,1.271-2.837,2.837c0,1.568,1.271,2.838,2.837,2.838c1.567,0,2.838-1.27,2.838-2.838
	c0-0.105-0.007-0.208-0.018-0.311l9.119-9.12l-2.508-2.508L24.974,24.732z M14.909,36.065h19.507v10.641H14.909V36.065z
	 M18.455,43.159h12.414v-3.547H18.455V43.159z"/>
<g>
	<path fill-rule="evenodd" clip-rule="evenodd" d="M-98.889-24.107c0.697-1.611,1.918-2.173,3.662-2.155
		c6.208,0.066,12.418,0.023,18.627,0.027c2.172,0.001,3.259,1.1,3.26,3.282c0.002,6.801,0.002,13.603,0,20.401
		c-0.001,2.184-1.086,3.282-3.26,3.282c-6.209,0.004-12.418-0.038-18.627,0.027c-1.744,0.02-2.964-0.545-3.662-2.153
		C-98.889-8.966-98.889-16.537-98.889-24.107z M-97.472-20.529c0,0.353,0,0.616,0,0.877c0.001,5.675,0,11.349,0.002,17.022
		c0.001,1.507,0.44,1.942,1.956,1.942c6.265,0.002,12.53,0.002,18.795,0c1.52,0,1.961-0.434,1.961-1.938
		c0.002-5.318-0.001-10.638-0.001-15.957c-0.001-0.64,0-1.28,0-1.947C-82.365-20.529-89.86-20.529-97.472-20.529z M-74.756-22.023
		c0-0.302-0.002-0.561,0-0.821c0.004-1.517-0.438-1.97-1.926-1.973c-0.945-0.002-1.891,0-2.835,0
		c-5.407,0-10.812-0.002-16.218,0.002c-1.113,0-1.675,0.477-1.73,1.45c-0.023,0.434-0.003,0.869-0.003,1.342
		C-89.87-22.023-82.354-22.023-74.756-22.023z"/>
	<path fill-rule="evenodd" clip-rule="evenodd" d="M-53.467-10.622c-0.348,0.117-0.696,0.33-1.047,0.337
		c-1.68,0.037-3.363,0.005-5.043,0.022c-0.712,0.007-0.996-0.298-1.018-1.008c-0.038-1.316,0.056-2.549,1.329-3.344
		c0.404,0.292,0.804,0.58,1.229,0.886c-0.806,0.407-1.276,0.984-1.084,1.982c1.354,0,2.723,0,4.148,0
		c0.241-0.941-0.203-1.538-1.063-1.976c0.421-0.306,0.813-0.591,1.351-0.983c0.401,0.596,0.799,1.186,1.196,1.777
		C-53.467-12.16-53.467-11.391-53.467-10.622z"/>
	<path fill-rule="evenodd" clip-rule="evenodd" d="M-53.467-19.14c-0.348,0.118-0.696,0.329-1.047,0.337
		c-1.684,0.036-3.368,0.003-5.052,0.022c-0.718,0.008-0.991-0.309-1.007-1.015c-0.023-1.243,0.021-2.437,1.233-3.265
		c0.346,0.275,0.701,0.557,0.919,0.731c-0.313,0.696-0.592,1.323-0.932,2.085c1.641,0,3.018,0,4.665,0
		c-0.327-0.751-0.601-1.375-0.913-2.088c0.182-0.149,0.514-0.42,1.005-0.826c0.383,0.583,0.757,1.146,1.128,1.713
		C-53.467-20.677-53.467-19.908-53.467-19.14z"/>
	<path fill-rule="evenodd" clip-rule="evenodd" d="M-53.467-1.751c-0.348,0.118-0.696,0.327-1.049,0.336
		c-1.652,0.038-3.306,0-4.96,0.03c-0.804,0.015-1.095-0.325-1.103-1.111c-0.016-1.223,0.074-2.37,1.235-3.174
		c0.337,0.261,0.679,0.525,0.953,0.737c-0.309,0.649-0.611,1.291-0.983,2.075c1.66,0,3.037,0,4.685,0
		c-0.325-0.75-0.599-1.374-0.911-2.086c0.18-0.147,0.509-0.421,1.005-0.827c0.383,0.581,0.757,1.147,1.128,1.714
		C-53.467-3.287-53.467-2.518-53.467-1.751z"/>
	<path fill-rule="evenodd" clip-rule="evenodd" d="M-68.637-18.527c2.114-1.211,3.643-3.835,6.756-3.382
		c-0.045,0.417-0.092,0.837-0.147,1.343c-2.862-0.2-4.063,2.575-6.132,3.377c0,0.532,0.156,1.099-0.04,1.279
		c-0.236,0.217-0.791,0.19-1.177,0.115c-0.661-0.128-1.31-0.347-1.944-0.58c-0.65-0.238-0.774-0.691-0.342-1.236
		c0.403-0.507,0.828-1.005,1.302-1.444c0.275-0.253,0.736-0.592,0.99-0.509C-69.078-19.469-68.917-18.955-68.637-18.527z"/>
	<path fill-rule="evenodd" clip-rule="evenodd" d="M-62.022-3.521c0,0.481,0,0.883,0,1.349c-3.029,0.406-4.542-2.235-6.621-3.381
		c-0.273,0.424-0.432,0.937-0.725,1.03c-0.253,0.083-0.716-0.25-0.99-0.504c-0.476-0.437-0.898-0.937-1.304-1.442
		c-0.433-0.537-0.313-0.998,0.337-1.237c0.661-0.246,1.339-0.475,2.029-0.604c0.377-0.068,0.897-0.034,1.157,0.187
		c0.168,0.143-0.017,0.703-0.052,1.216C-66.098-6.104-64.908-3.334-62.022-3.521z"/>
	<path fill-rule="evenodd" clip-rule="evenodd" d="M-68.471-12.563c1.03-0.298,2.097-0.51,3.082-0.919
		c1.194-0.495,2.37-0.845,3.769-0.585c-0.138,0.474-0.257,0.883-0.328,1.125c-2.342,0.646-4.555,1.257-6.719,1.854
		c-0.066,0.251-0.171,0.652-0.275,1.052c-0.411-0.128-0.864-0.187-1.223-0.404c-0.448-0.271-0.823-0.668-1.222-1.02
		c-0.748-0.66-0.723-1.057,0.108-1.56c0.505-0.306,1-0.644,1.543-0.861c0.331-0.134,0.852-0.217,1.089-0.046
		c0.217,0.155,0.169,0.682,0.237,1.045C-68.43-12.775-68.451-12.668-68.471-12.563z"/>
	<path fill-rule="evenodd" clip-rule="evenodd" d="M-57.064-26.233c0.768-0.021,1.426,0.583,1.464,1.346
		c0.039,0.797-0.613,1.482-1.412,1.483c-0.768,0.001-1.399-0.622-1.417-1.391C-58.446-25.559-57.827-26.211-57.064-26.233z"/>
	<path fill-rule="evenodd" clip-rule="evenodd" d="M-57.03-14.887c-0.767-0.008-1.395-0.636-1.399-1.405
		c-0.004-0.799,0.676-1.455,1.473-1.422c0.763,0.032,1.376,0.688,1.356,1.45C-55.621-15.5-56.266-14.878-57.03-14.887z"/>
	<path fill-rule="evenodd" clip-rule="evenodd" d="M-55.602-7.386c-0.021,0.763-0.669,1.38-1.434,1.372
		c-0.765-0.013-1.394-0.65-1.394-1.415c0-0.795,0.688-1.456,1.479-1.417C-56.187-8.807-55.579-8.146-55.602-7.386z"/>
	<path fill-rule="evenodd" clip-rule="evenodd" d="M-86.113-12.042c-2.717,0-5.435,0.003-8.151-0.001
		c-1.282-0.002-1.777-0.489-1.784-1.751c-0.008-1.211-0.01-2.422-0.001-3.633c0.007-1.159,0.526-1.711,1.653-1.712
		c5.523-0.006,11.045-0.004,16.567,0.003c1.1,0.001,1.641,0.539,1.65,1.619c0.012,1.271,0.011,2.541-0.002,3.811
		c-0.011,1.152-0.521,1.658-1.692,1.661C-80.621-12.037-83.367-12.042-86.113-12.042z M-94.589-13.52c5.692,0,11.316,0,16.923,0
		c0-1.432,0-2.801,0-4.156c-5.674,0-11.278,0-16.923,0C-94.589-16.283-94.589-14.936-94.589-13.52z"/>
	<path fill-rule="evenodd" clip-rule="evenodd" d="M-93.191-10.625c2.697-0.006,2.814,0.112,2.817,2.84
		c0.002,2.73-0.122,2.856-2.813,2.842c-2.79-0.015-2.86-0.088-2.863-2.883C-96.053-10.51-95.944-10.618-93.191-10.625z
		 M-91.86-6.398c0-0.983,0-1.877,0-2.759c-0.944,0-1.814,0-2.716,0c0,0.94,0,1.831,0,2.759C-93.649-6.398-92.778-6.398-91.86-6.398z
		"/>
	<path fill-rule="evenodd" clip-rule="evenodd" d="M-86.146-10.622c2.787,0,2.87,0.084,2.87,2.875c0,2.678-0.123,2.802-2.766,2.802
		c-2.841,0-2.911-0.068-2.911-2.919C-88.952-10.508-88.836-10.622-86.146-10.622z M-84.733-9.156c-0.974,0-1.843,0-2.745,0
		c0,0.937,0,1.83,0,2.729c0.947,0,1.837,0,2.745,0C-84.733-7.36-84.733-8.228-84.733-9.156z"/>
	<path fill-rule="evenodd" clip-rule="evenodd" d="M-76.175-7.711c-0.006,2.631-0.144,2.766-2.805,2.77
		c-2.77,0.005-2.875-0.103-2.875-2.872c0-2.693,0.115-2.808,2.845-2.813C-76.29-10.63-76.167-10.503-76.175-7.711z M-80.396-6.411
		c0.98,0,1.854,0,2.743,0c0-0.945,0-1.84,0-2.729c-0.952,0-1.848,0-2.743,0C-80.396-8.198-80.396-7.326-80.396-6.411z"/>
	<path fill-rule="evenodd" clip-rule="evenodd" d="M-93.238-2.104c-0.647,0-1.307,0.073-1.937-0.032
		c-0.316-0.053-0.577-0.434-0.862-0.664c0.274-0.241,0.538-0.676,0.826-0.692c1.321-0.073,2.65-0.073,3.971,0.002
		c0.297,0.015,0.572,0.43,0.857,0.658c-0.305,0.241-0.582,0.631-0.917,0.69c-0.627,0.113-1.29,0.034-1.937,0.034
		C-93.238-2.107-93.238-2.105-93.238-2.104z"/>
	<path fill-rule="evenodd" clip-rule="evenodd" d="M-86.085-2.107c-0.677,0-1.366,0.072-2.026-0.034
		c-0.305-0.047-0.554-0.449-0.83-0.69c0.285-0.229,0.561-0.644,0.857-0.66c1.322-0.073,2.65-0.073,3.971,0.002
		c0.288,0.018,0.551,0.451,0.827,0.69c-0.286,0.23-0.546,0.609-0.861,0.662C-84.778-2.035-85.438-2.107-86.085-2.107z"/>
	<path fill-rule="evenodd" clip-rule="evenodd" d="M-79.02-2.109c-0.679,0-1.365,0.066-2.029-0.03
		c-0.29-0.043-0.531-0.417-0.794-0.639c0.267-0.248,0.523-0.692,0.804-0.71c1.352-0.077,2.71-0.072,4.063-0.008
		c0.273,0.015,0.528,0.418,0.791,0.643c-0.267,0.25-0.506,0.665-0.807,0.714c-0.659,0.109-1.35,0.036-2.027,0.036
		C-79.02-2.107-79.02-2.107-79.02-2.109z"/>
	<path fill-rule="evenodd" clip-rule="evenodd" d="M-78.744-23.384c-0.438,0.316-0.729,0.682-0.939,0.639
		c-0.281-0.056-0.499-0.426-0.744-0.663c0.251-0.229,0.479-0.598,0.761-0.646C-79.453-24.089-79.172-23.713-78.744-23.384z"/>
	<path fill-rule="evenodd" clip-rule="evenodd" d="M-75.867-23.36c-0.49,0.319-0.798,0.669-1.006,0.617
		c-0.278-0.069-0.479-0.45-0.712-0.697c0.231-0.218,0.465-0.612,0.694-0.61C-76.618-24.047-76.348-23.705-75.867-23.36z"/>
</g>
<g>
	<path fill-rule="evenodd" clip-rule="evenodd" d="M180.363-31.272c-0.424,1.08-1.332,1.661-2.297,2.146
		c-2.002,1.008-4.17,1.313-6.371,1.432c-0.766,0.045-1.537,0.007-2.324,0.007c-0.178-0.618-0.355-1.22-0.547-1.88
		c0.213,0,0.377-0.003,0.541,0c2.092,0.031,4.189-0.01,6.221-0.584c0.807-0.232,1.572-0.643,2.338-1.016
		c0.375-0.181,0.539-0.516,0.492-0.974c-0.117-1.173-0.15-2.355-0.287-3.528c-0.199-1.709-1.238-2.724-2.838-3.229
		c-0.273-0.085-0.553-0.161-0.834-0.256c-0.73-0.25-1.367-0.226-2.125,0.157c-1.559,0.793-3.172,0.677-4.717-0.202
		c-0.24-0.133-0.588-0.195-0.855-0.133c-0.902,0.219-1.791,0.506-2.654,0.759c0.104-0.581,0.201-1.22,0.336-1.853
		c0.029-0.13,0.18-0.301,0.309-0.333c0.979-0.246,1.963-0.477,2.947-0.677c0.137-0.027,0.375,0.096,0.451,0.219
		c0.635,1.079,3.418,1.082,4.107,0.003c0.082-0.131,0.35-0.254,0.5-0.22c1.258,0.308,2.543,0.561,3.76,1.001
		c2.119,0.772,3.213,2.427,3.514,4.614c0.143,1.063,0.17,2.147,0.26,3.221c0.02,0.239,0.047,0.472,0.074,0.711
		C180.363-31.682,180.363-31.477,180.363-31.272z"/>
	<path fill-rule="evenodd" clip-rule="evenodd" d="M155.899-17.58c-2.051-0.021-4.826-0.246-7.485-1.237
		c-1.184-0.444-2.277-1.029-3.176-1.941c-0.406-0.41-0.633-0.882-0.584-1.47c0.143-1.812,0.181-3.634,0.443-5.421
		c0.404-2.7,2.064-4.423,4.629-5.243c1.234-0.396,2.516-0.653,3.78-0.943c0.167-0.034,0.465,0.055,0.55,0.188
		c0.889,1.33,4.256,1.474,5.305-0.03c0.076-0.109,0.291-0.212,0.406-0.178c1.535,0.396,3.098,0.731,4.588,1.261
		c2.213,0.79,3.443,2.499,3.93,4.765c0.416,1.938,0.443,3.914,0.424,5.883c-0.008,0.396-0.273,0.854-0.555,1.158
		c-1.094,1.183-2.529,1.809-4.031,2.267C161.936-17.857,159.604-17.58,155.899-17.58z M156.679-19.477
		c2.884,0,5.212-0.28,7.12-0.871c0.986-0.301,1.936-0.697,2.709-1.408c0.15-0.137,0.314-0.362,0.314-0.547
		c-0.021-1.815-0.008-3.637-0.445-5.414c-0.301-1.214-0.936-2.188-2.049-2.827c-1.225-0.7-2.578-1.005-3.938-1.288
		c-0.137-0.027-0.324,0.071-0.459,0.16c-1.934,1.285-4.518,1.292-6.449,0.024c-0.153-0.103-0.393-0.191-0.553-0.15
		c-1.166,0.328-2.355,0.608-3.477,1.06c-1.244,0.499-2.01,1.49-2.376,2.796c-0.517,1.859-0.489,3.76-0.509,5.66
		c0,0.185,0.174,0.403,0.328,0.54c0.848,0.759,1.887,1.169,2.963,1.477C152.088-19.624,154.382-19.5,156.679-19.477z"/>
	<path fill-rule="evenodd" clip-rule="evenodd" d="M163.563-42.834c-0.008,2.835-0.814,5.32-3.057,7.172
		c-2.307,1.901-5.457,1.847-7.737-0.096c-1.579-1.347-2.468-3.083-2.763-5.113c-0.26-1.798-0.191-3.596,0.336-5.344
		c0.775-2.563,2.57-4.006,5.243-4.165c1.019-0.062,2.067-0.044,3.069,0.131c2.543,0.448,4.129,2.164,4.607,4.867
		C163.408-44.541,163.463-43.683,163.563-42.834z M161.635-42.902c-0.049-0.468-0.096-1.237-0.209-1.998
		c-0.252-1.69-1.053-2.965-2.807-3.42c-1.229-0.319-2.474-0.311-3.711-0.031c-1.426,0.323-2.44,1.176-2.728,2.617
		c-0.249,1.248-0.369,2.54-0.376,3.813c0,1.431,0.492,2.753,1.391,3.895c1.829,2.328,4.673,2.482,6.703,0.335
		C161.201-39.065,161.613-40.766,161.635-42.902z"/>
	<path fill-rule="evenodd" clip-rule="evenodd" d="M164.293-48.53c0.164-1.096,0.23-2.006,0.438-2.883
		c0.484-2.052,1.783-3.305,3.869-3.702c1.141-0.217,2.283-0.2,3.418,0.049c1.668,0.368,2.891,1.314,3.424,2.937
		c0.855,2.632,0.916,5.258-0.553,7.738c-1.266,2.138-3.432,3.184-5.736,2.695c-2.166-0.463-3.5-1.953-4.23-3.958
		C164.572-46.618,164.475-47.674,164.293-48.53z M174.15-48.651c-0.09-0.712-0.137-1.432-0.268-2.136
		c-0.266-1.425-1.045-2.244-2.475-2.444c-0.834-0.118-1.715-0.082-2.549,0.029c-1.203,0.163-2.037,0.92-2.25,2.104
		c-0.205,1.135-0.314,2.317-0.232,3.462c0.063,0.802,0.391,1.644,0.814,2.345c1.441,2.418,4.457,2.422,5.994,0.067
		C173.863-46.269,174.123-47.417,174.15-48.651z"/>
	<path fill-rule="evenodd" clip-rule="evenodd" d="M137.318-49.08c0.15-0.858,0.227-1.735,0.459-2.57
		c0.502-1.815,1.682-2.982,3.547-3.403c1.258-0.282,2.516-0.286,3.768,0.01c1.578,0.369,2.762,1.275,3.295,2.808
		c0.892,2.553,0.946,5.118-0.363,7.569c-0.813,1.53-2.051,2.617-3.793,2.97c-2.311,0.472-4.088-0.453-5.445-2.273
		C137.66-45.478,137.305-47.217,137.318-49.08z M139.216-48.714c0.034,1.334,0.317,2.435,0.957,3.438
		c1.575,2.473,4.714,2.387,6.149-0.173c1.059-1.88,0.93-3.855,0.406-5.838c-0.277-1.056-1.025-1.741-2.088-1.89
		c-0.902-0.126-1.846-0.137-2.752-0.033c-1.224,0.144-2.02,0.911-2.301,2.118C139.41-50.313,139.336-49.507,139.216-48.714z"/>
	<path fill-rule="evenodd" clip-rule="evenodd" d="M149.281-38.58c-0.895-0.26-1.77-0.543-2.666-0.759
		c-0.246-0.062-0.57,0.007-0.799,0.13c-1.795,0.95-3.563,0.988-5.332-0.062c-0.147-0.085-0.363-0.154-0.52-0.116
		c-0.711,0.171-1.43,0.355-2.127,0.588c-1.605,0.533-2.447,1.706-2.625,3.35c-0.129,1.189-0.191,2.389-0.211,3.585
		c0,0.246,0.287,0.561,0.525,0.735c0.951,0.687,2.051,1.066,3.193,1.183c1.852,0.198,3.719,0.26,5.578,0.379
		c0.068,0.004,0.129,0,0.246,0c-0.178,0.64-0.346,1.241-0.541,1.945c-1.195-0.055-2.409-0.062-3.612-0.178
		c-1.955-0.185-3.858-0.588-5.581-1.606c-0.205-0.123-0.4-0.267-0.596-0.4c-0.826-0.563-1.264-1.288-1.138-2.348
		c0.164-1.357,0.164-2.738,0.38-4.089c0.331-2.098,1.572-3.554,3.574-4.258c1.159-0.405,2.373-0.646,3.568-0.93
		c0.154-0.036,0.404,0.068,0.52,0.191c1.066,1.145,3.076,1.135,4.17-0.021c0.109-0.111,0.336-0.195,0.479-0.166
		c0.938,0.191,1.873,0.409,2.803,0.639c0.141,0.036,0.332,0.174,0.359,0.299C149.076-39.845,149.176-39.188,149.281-38.58z"/>
</g>
<g>
	<path fill-rule="evenodd" clip-rule="evenodd" d="M280.858,37.858c-0.49-0.209-1.029-0.344-1.46-0.641
		c-0.768-0.527-0.993-1.355-0.994-2.25c-0.003-6.787-0.006-13.572,0-20.359c0.003-2.811,0.956-5.243,2.981-7.22
		c0.838-0.819,1.793-1.482,2.881-1.932c0.299-0.124,0.408-0.276,0.406-0.613c-0.014-3.394-0.008-6.785-0.007-10.18
		c0-0.951,0.247-1.211,1.195-1.217c1.476-0.01,2.952-0.007,4.429,0c0.247,0.001,0.512,0.016,0.741,0.097
		c0.367,0.129,0.464,0.448,0.461,0.82c-0.006,2.582-0.003,5.164-0.003,7.745c-0.003,0.855,0.012,1.711-0.012,2.565
		c-0.006,0.287,0.095,0.415,0.354,0.509c2.893,1.069,4.875,3.055,5.969,5.933c0.424,1.117,0.576,2.284,0.576,3.466
		c0.006,6.773,0.006,13.545,0.003,20.316c0,1.658-0.771,2.584-2.405,2.908c-0.026,0.002-0.044,0.031-0.067,0.053
		C290.89,37.858,285.873,37.858,280.858,37.858z M286.165-1.711c0,0.24,0,0.444,0,0.647c0,2.125,0,4.249,0,6.372
		c0,0.888-0.074,0.991-0.924,1.317c-3.137,1.207-5.337,4.261-5.348,7.536c-0.021,6.992-0.008,13.984-0.007,20.975
		c0,0.744,0.469,1.215,1.212,1.215c4.869,0.006,9.735,0.006,14.602,0c0.724,0,1.182-0.469,1.182-1.195
		c0-7.047,0-14.098-0.009-21.146c0-0.412-0.053-0.826-0.144-1.224c-0.738-3.276-2.758-5.376-5.925-6.41
		c-0.662-0.218-0.762-0.338-0.762-1.044c0-2.198,0-4.396-0.003-6.592c0-0.143,0-0.285,0-0.45
		C288.734-1.711,287.484-1.711,286.165-1.711z M289.973-5.022c-1.276,0-2.529,0-3.772,0c0,0.619,0,1.2,0,1.78
		c1.272,0,2.517,0,3.772,0C289.973-3.848,289.973-4.427,289.973-5.022z"/>
	<path fill-rule="evenodd" clip-rule="evenodd" d="M293.007,22.519c0,1.887,0.006,3.775,0,5.662c0,1.383-0.747,2.127-2.129,2.129
		c-1.699,0.006-3.394,0.006-5.09,0c-1.262-0.006-2.02-0.711-2.023-1.939c-0.012-3.852-0.016-7.699,0.012-11.551
		c0.014-1.852,1.215-3.49,2.967-4.166c1.7-0.656,3.688-0.215,4.964,1.107c0.864,0.9,1.306,1.977,1.306,3.229
		c-0.003,1.842,0,3.688,0,5.529C293.01,22.519,293.01,22.519,293.007,22.519z M291.566,22.585c0-1.844,0.012-3.688-0.006-5.529
		c-0.019-2.289-2.165-3.785-4.294-3.016c-1.243,0.451-2.051,1.639-2.055,3.105c-0.012,3.688-0.005,7.375-0.004,11.063
		c0,0.52,0.102,0.621,0.624,0.621c1.679,0,3.361,0,5.043,0c0.562,0,0.688-0.133,0.688-0.713
		C291.566,26.272,291.563,24.429,291.566,22.585z"/>
</g>
<g>
	<path fill-rule="evenodd" clip-rule="evenodd" d="M185.398,25.899c0,1.799-0.043,3.602,0.021,5.393
		c0.028,0.773-0.276,1.156-0.915,1.485c-2.006,1.033-3.988,2.11-5.981,3.17c-2.01,1.074-4.021,2.155-6.049,3.203
		c-0.215,0.11-0.597,0.108-0.803-0.011c-0.91-0.529-1.781-1.122-2.675-1.688c-0.8-0.505-1.61-1.003-2.412-1.505
		c-0.305-0.193-0.615-0.381-0.91-0.589c-0.219-0.15-0.342-0.099-0.417,0.14c-0.578,1.834-1.735,3.183-3.455,4.022
		c-1.252,0.609-2.573,0.807-3.98,0.572c-1.781-0.301-3.198-1.155-4.279-2.585c-1.02-1.341-1.439-2.876-1.291-4.554
		c0.191-2.197,1.227-3.896,3.089-5.073c0.898-0.572,1.883-0.959,2.968-0.974c0.412-0.006,0.52-0.167,0.52-0.552
		c-0.014-2.145,0.003-4.293-0.016-6.44c-0.006-0.508,0.195-0.821,0.637-1.054c2.372-1.25,4.739-2.514,7.108-3.774
		c1.647-0.875,3.301-1.739,4.932-2.64c0.418-0.227,0.769-0.225,1.164-0.005c1.525,0.855,3.049,1.709,4.582,2.545
		c2.212,1.214,4.429,2.413,6.646,3.612c0.316,0.173,0.632,0.347,0.955,0.505c0.386,0.189,0.575,0.473,0.572,0.922
		c-0.01,1.957-0.005,3.916-0.005,5.872C185.403,25.899,185.401,25.899,185.398,25.899z M184.085,26.264c-0.003,0-0.003,0-0.003,0
		c0-1.583,0-3.166,0-4.75c-0.002-0.4-0.134-0.51-0.434-0.353c-0.728,0.394-1.449,0.803-2.182,1.188
		c-0.335,0.177-0.469,0.407-0.46,0.798c0.026,1.032-0.015,2.067,0.005,3.099c0.011,0.432-0.209,0.683-0.535,0.864
		c-0.909,0.506-1.829,0.99-2.744,1.486c-0.621,0.339-1.091,0.065-1.1-0.646c-0.007-0.817,0-1.637-0.007-2.454
		c-0.006-0.381-0.105-0.437-0.432-0.261c-0.998,0.543-1.987,1.103-2.992,1.63c-0.338,0.177-0.481,0.385-0.481,0.78
		c0.021,2.696,0.01,5.393,0.013,8.089c0,0.442,0.009,0.887,0.003,1.329c0,0.274,0.091,0.383,0.363,0.237
		c1.627-0.86,3.259-1.723,4.885-2.586c1.872-0.998,3.744-2.004,5.616-3.002c0.305-0.159,0.498-0.347,0.492-0.737
		C184.071,29.404,184.085,27.834,184.085,26.264z M160.24,20.835c-0.031,0.188-0.064,0.289-0.064,0.39
		c-0.005,1.788,0,3.569-0.005,5.355c-0.003,0.321,0.161,0.438,0.444,0.505c0.968,0.224,1.84,0.683,2.583,1.319
		c1.461,1.257,2.258,2.862,2.336,4.799c0.016,0.369,0.144,0.583,0.445,0.769c1.688,1.056,3.365,2.124,5.048,3.184
		c0.08,0.048,0.238,0.097,0.286,0.054c0.075-0.062,0.112-0.197,0.112-0.305c0.008-3.124,0.005-6.251,0.011-9.375
		c0-0.291-0.112-0.463-0.367-0.604c-1.548-0.87-3.088-1.751-4.631-2.628c-1.604-0.906-3.203-1.815-4.807-2.72
		C161.195,21.33,160.746,21.103,160.24,20.835z M164.21,33.529c0.106-2.872-2.424-5.381-5.35-5.362
		c-2.856,0.019-5.231,2.417-5.312,5.218c-0.08,2.888,2.406,5.541,5.488,5.479C161.786,38.804,164.312,36.33,164.21,33.529z
		 M160.974,19.596c0.182,0.137,0.272,0.228,0.382,0.289c1.284,0.736,2.57,1.468,3.859,2.196c2.183,1.236,4.371,2.466,6.554,3.705
		c0.222,0.125,0.396,0.134,0.625,0.002c1.022-0.577,2.06-1.132,3.087-1.7c0.086-0.046,0.197-0.132,0.2-0.204
		c0.003-0.068-0.104-0.165-0.187-0.214c-0.452-0.26-0.907-0.507-1.367-0.756c-2.942-1.603-5.895-3.187-8.832-4.807
		c-0.554-0.308-0.997-0.38-1.567-0.021C162.872,18.623,161.957,19.064,160.974,19.596z M183.259,19.818
		c-0.401-0.229-0.683-0.398-0.969-0.557c-1.898-1.037-3.801-2.073-5.699-3.108c-1.432-0.78-2.859-1.564-4.293-2.332
		c-0.112-0.059-0.308-0.059-0.423,0c-0.754,0.375-1.498,0.771-2.236,1.166c-0.134,0.07-0.24,0.182-0.357,0.273
		c0.125,0.107,0.237,0.235,0.379,0.316c1.576,0.869,3.156,1.732,4.734,2.6c1.861,1.016,3.724,2.035,5.582,3.06
		c0.26,0.145,0.486,0.155,0.751,0c0.507-0.292,1.033-0.551,1.546-0.829C182.571,20.241,182.857,20.056,183.259,19.818z
		 M165.978,16.903c0.232,0.158,0.334,0.242,0.452,0.306c0.957,0.524,1.923,1.042,2.883,1.562c1.795,0.977,3.589,1.952,5.382,2.931
		c0.952,0.514,1.898,1.038,2.852,1.547c0.288,0.154,0.423,0.36,0.414,0.702c-0.019,0.805-0.013,1.611-0.009,2.416
		c0,0.487,0.113,0.543,0.541,0.294c0.289-0.171,0.566-0.359,0.867-0.496c0.274-0.131,0.357-0.322,0.357-0.611
		c-0.01-0.829-0.008-1.663,0-2.492c0.006-0.28-0.071-0.476-0.342-0.621c-1.351-0.723-2.699-1.458-4.045-2.198
		c-2.383-1.313-4.763-2.637-7.149-3.951c-0.181-0.099-0.438-0.243-0.588-0.184C167.066,16.312,166.573,16.598,165.978,16.903z"/>
	<path fill-rule="evenodd" clip-rule="evenodd" d="M139.643,23.54c0.003-6.081,0.006-12.16-0.008-18.239
		c0-0.615,0.198-0.975,0.939-0.965c2.482,0.035,4.967,0.009,7.448,0.019c0.388,0.001,0.649-0.081,0.88-0.458
		c0.631-1.043,1.555-1.78,2.629-2.351c0.183-0.096,0.324-0.388,0.359-0.61c0.16-0.956,0.562-1.79,1.238-2.469
		c1.451-1.46,3.693-1.782,5.507-1.023c1.183,0.495,2.011,1.343,2.522,2.502c0.146,0.336,0.169,0.728,0.291,1.081
		c0.064,0.192,0.171,0.437,0.331,0.522c1.13,0.597,2.063,1.389,2.702,2.503c0.145,0.257,0.38,0.296,0.653,0.296
		c2.535-0.007,5.07-0.004,7.606-0.003c0.73,0,0.93,0.201,0.933,0.931c0.003,1.677,0.006,3.357,0.003,5.031
		c0,0.315-0.037,0.631-0.396,0.759c-0.557,0.198-0.953-0.083-0.957-0.7c-0.006-1.37,0.002-2.739,0.002-4.106
		c0-0.634-0.002-0.634-0.618-0.634c-1.998,0-3.995,0-5.997,0c-0.442,0-0.48,0.086-0.417,0.532c0.103,0.688,0.188,1.377,0.228,2.07
		c0.035,0.559-0.179,0.746-0.743,0.746c-5.422,0.005-10.846,0.008-16.264,0.008c-0.514,0-0.814-0.278-0.776-0.805
		c0.048-0.696,0.139-1.385,0.257-2.073c0.069-0.42,0.064-0.473-0.369-0.473c-2.081-0.011-4.162-0.011-6.242-0.016
		c-0.278,0-0.426,0.112-0.423,0.406c0.005,0.348,0,0.695,0,1.046c0.003,11.167,0.005,22.33,0.003,33.495
		c0,1.029,0.031,0.838,0.858,0.838c9.944,0.002,19.889,0.002,29.833,0.002c0.657,0,0.657,0,0.673-0.647
		c0.012-0.48,0.273-0.771,0.688-0.765c0.378,0.005,0.65,0.31,0.655,0.76c0.012,0.416,0.021,0.834,0,1.245
		c-0.025,0.517-0.214,0.686-0.722,0.723c-0.146,0.011-0.294,0.006-0.444,0.006c-10.612,0-21.23,0-31.844-0.002
		c-0.15,0-0.297,0.007-0.443-0.016c-0.348-0.048-0.557-0.245-0.573-0.609c-0.011-0.173-0.003-0.347-0.003-0.523
		C139.643,35.561,139.643,29.55,139.643,23.54z M156.678,7.641c0-0.003,0-0.003,0-0.003c1.987,0,3.973,0,5.959,0
		c0.375,0,0.749-0.011,1.124,0.006c0.363,0.019,0.492-0.142,0.425-0.482c-0.045-0.225-0.102-0.444-0.152-0.666
		c-0.404-1.864-1.5-3.152-3.247-3.899c-0.5-0.213-0.604-0.362-0.615-0.909c-0.011-0.719-0.225-1.376-0.685-1.93
		c-1.021-1.231-2.289-1.657-3.87-1.23c-1.26,0.341-2.512,1.657-2.437,3.108c0.029,0.524-0.244,0.774-0.674,0.959
		c-1.963,0.852-3.044,2.375-3.35,4.47c-0.08,0.53-0.021,0.572,0.52,0.572C152.011,7.644,154.346,7.641,156.678,7.641z"/>
	<path fill-rule="evenodd" clip-rule="evenodd" d="M149.745,15.66c0,0.805,0.006,1.61,0,2.415c-0.005,0.53-0.235,0.776-0.749,0.782
		c-1.463,0.01-2.926,0.016-4.387,0.002c-0.695-0.005-0.9-0.236-0.903-0.937c0-1.5,0-3.003,0.005-4.506
		c0-0.725,0.246-0.965,0.969-0.968c1.355,0,2.712,0,4.065,0.006c0.813,0.005,1.017,0.219,1.017,1.035c0,0.725,0,1.447,0,2.172
		C149.756,15.66,149.751,15.66,149.745,15.66z M148.445,15.675c0.003,0,0.006,0,0.006,0c0-0.494-0.006-0.989,0.005-1.484
		c0.003-0.251-0.097-0.375-0.353-0.375c-0.898,0-1.793-0.006-2.691-0.011c-0.248-0.003-0.357,0.107-0.357,0.364
		c0.008,0.979,0.004,1.955,0,2.931c-0.004,0.295,0.122,0.401,0.411,0.401c0.856-0.002,1.712,0.003,2.567,0.019
		c0.295,0.009,0.418-0.111,0.415-0.397C148.442,16.641,148.445,16.16,148.445,15.675z"/>
	<path fill-rule="evenodd" clip-rule="evenodd" d="M149.759,24.954c0,0.792,0.008,1.581-0.003,2.373
		c-0.005,0.659-0.16,0.825-0.805,0.829c-1.49,0.007-2.977,0.007-4.467,0c-0.533-0.004-0.763-0.226-0.768-0.763
		c-0.011-1.61-0.011-3.218-0.003-4.827c0.003-0.522,0.228-0.744,0.741-0.746c1.46-0.006,2.92-0.012,4.383,0
		c0.771,0.004,0.918,0.159,0.921,0.919C149.762,23.477,149.759,24.217,149.759,24.954z M148.445,25.008h0.003
		c0-0.457-0.014-0.916,0.003-1.369c0.013-0.37-0.107-0.535-0.508-0.524c-0.83,0.026-1.662,0.015-2.494,0.006
		c-0.297-0.006-0.406,0.105-0.4,0.399c0.01,0.953,0.016,1.904,0.002,2.854c-0.002,0.342,0.137,0.492,0.475,0.49
		c0.818-0.006,1.636-0.006,2.451,0.002c0.352,0.004,0.479-0.16,0.475-0.494C148.439,25.917,148.445,25.461,148.445,25.008z"/>
	<path fill-rule="evenodd" clip-rule="evenodd" d="M149.756,34.268c0,0.805,0,1.609,0,2.412c0,0.509-0.197,0.73-0.695,0.731
		c-1.557,0.012-3.107,0.012-4.664,0.004c-0.412-0.004-0.68-0.268-0.683-0.682c-0.008-1.65-0.014-3.299,0.003-4.946
		c0.002-0.51,0.209-0.695,0.725-0.697c1.514-0.006,3.027-0.011,4.541-0.006c0.597,0,0.769,0.179,0.773,0.773
		C149.762,32.662,149.756,33.465,149.756,34.268z M145.055,34.214L145.055,34.214c0,0.492,0.004,0.99,0,1.484
		c-0.006,0.275,0.101,0.426,0.4,0.426c0.855-0.006,1.712-0.004,2.567,0c0.278,0,0.429-0.127,0.429-0.413c0-0.962,0-1.925,0.01-2.888
		c0-0.327-0.139-0.449-0.465-0.443c-0.84,0.009-1.686,0.009-2.53-0.006c-0.323-0.006-0.423,0.134-0.411,0.433
		C145.064,33.275,145.055,33.743,145.055,34.214z"/>
	<path fill-rule="evenodd" clip-rule="evenodd" d="M156.719,15.021c1.607,0,3.217,0,4.822,0c0.48,0,0.759,0.232,0.765,0.621
		c0.003,0.423-0.268,0.674-0.765,0.674c-3.178,0.005-6.354,0.005-9.527,0.005c-0.107,0-0.215-0.011-0.322-0.024
		c-0.438-0.051-0.588-0.214-0.576-0.65c0.004-0.412,0.187-0.615,0.62-0.615c1.658-0.007,3.321-0.005,4.983-0.005
		C156.719,15.026,156.719,15.023,156.719,15.021z"/>
	<path fill-rule="evenodd" clip-rule="evenodd" d="M154.576,24.308c0.911,0,1.824-0.006,2.738,0
		c0.564,0.004,0.803,0.299,0.717,0.854c-0.054,0.342-0.283,0.492-0.797,0.492c-0.963,0.002-1.932-0.005-2.896-0.005
		c-0.816,0-1.635,0.007-2.453,0.011c-0.46,0-0.76-0.208-0.811-0.562c-0.066-0.466,0.207-0.782,0.725-0.787
		C152.725,24.298,153.65,24.308,154.576,24.308L154.576,24.308z"/>
	<path fill-rule="evenodd" clip-rule="evenodd" d="M157.502,34.998c0.674-0.63,1.289-1.202,1.904-1.775
		c0.768-0.706,1.537-1.408,2.311-2.108c0.305-0.281,0.76-0.286,1.006-0.024c0.265,0.278,0.24,0.712-0.074,1
		c-1.563,1.443-3.125,2.884-4.697,4.316c-0.444,0.407-0.869,0.366-1.229-0.124c-0.572-0.788-1.145-1.576-1.655-2.405
		c-0.139-0.219-0.128-0.6-0.046-0.858c0.046-0.138,0.408-0.255,0.607-0.234c0.188,0.022,0.396,0.21,0.525,0.378
		C156.604,33.739,157.02,34.342,157.502,34.998z"/>
	<path fill-rule="evenodd" clip-rule="evenodd" d="M156.651,5.039c-1.517,0.07-2.647-1.155-2.665-2.653
		c-0.021-1.385,1.205-2.62,2.553-2.647c1.567-0.03,2.75,1.139,2.771,2.613C159.336,3.846,158.191,5.108,156.651,5.039z
		 M157.98,2.439c0.014-0.675-0.639-1.386-1.303-1.384c-0.672,0.002-1.348,0.686-1.348,1.293c-0.003,0.859,0.625,1.35,1.3,1.405
		C157.313,3.809,157.967,3.142,157.98,2.439z"/>
</g>
<g>
	<path fill-rule="evenodd" clip-rule="evenodd" d="M235.846-21.266c-12.978,0-25.896,0-38.846,0c0-14.667,0-29.313,0-44.027
		c0.146,0,0.297,0,0.445,0c5.145,0,10.291-0.001,15.437,0.003c0.231,0,0.476,0.026,0.69,0.102c0.57,0.203,0.887,0.755,0.836,1.38
		c-0.046,0.562-0.443,1.032-1.009,1.157c-0.227,0.048-0.466,0.058-0.699,0.058c-4.142,0.003-8.284,0.002-12.425,0.002
		c-0.187,0-0.371,0-0.587,0c0,12.888,0,25.729,0,38.607c11.141,0,22.267,0,33.449,0c0-0.19,0-0.372,0-0.557
		c0-5.507,0-11.014,0-16.521c0-0.857,0.438-1.436,1.147-1.539c0.723-0.106,1.373,0.356,1.521,1.089
		c0.034,0.165,0.034,0.341,0.037,0.513c0.003,6.417,0.003,12.834,0.003,19.25C235.846-21.611,235.846-21.466,235.846-21.266z"/>
	<path fill-rule="evenodd" clip-rule="evenodd" d="M217.013-41.111c-1.316,0.097-1.78-0.369-1.661-1.37
		c0.279-2.352,0.556-4.702,0.871-7.047c0.045-0.33,0.227-0.701,0.462-0.935c5.469-5.469,10.956-10.923,16.44-16.378
		c0.566-0.564,1.12-0.574,1.68-0.011c2.173,2.175,4.344,4.354,6.508,6.539c0.55,0.557,0.544,1.129-0.02,1.689
		c-5.503,5.48-11.007,10.959-16.521,16.428c-0.209,0.204-0.522,0.392-0.804,0.416C221.55-41.524,219.129-41.308,217.013-41.111z
		 M217.617-43.366c0.226,0,0.412,0.016,0.594-0.003c1.499-0.138,2.995-0.313,4.495-0.413c0.55-0.037,0.916-0.257,1.288-0.629
		c4.897-4.889,9.804-9.767,14.713-14.644c0.132-0.13,0.31-0.212,0.46-0.313c-1.833-1.801-3.559-3.497-5.298-5.204
		c0.047-0.03,0.031-0.023,0.022-0.013c-5.132,5.101-10.261,10.199-15.382,15.306c-0.123,0.122-0.212,0.317-0.234,0.488
		C218.049-47.003,217.838-45.211,217.617-43.366z"/>
	<path fill-rule="evenodd" clip-rule="evenodd" d="M225.789-30.929c0,0.875,0,1.732,0,2.614c-7.02,0-14.02,0-21.051,0
		c0-0.863,0-1.717,0-2.614C211.737-30.929,218.736-30.929,225.789-30.929z"/>
	<path fill-rule="evenodd" clip-rule="evenodd" d="M218.682-38.366c0,0.882,0,1.735,0,2.614c-4.749,0-9.471,0-14.22,0
		c0-0.882,0-1.732,0-2.614C209.211-38.366,213.934-38.366,218.682-38.366z"/>
</g>
<g>
	<path fill-rule="evenodd" clip-rule="evenodd" d="M-114.566,20.666c1.01,0,1.988-0.002,2.97,0.002
		c0.241,0.002,0.217-0.165,0.227-0.315c0.113-1.618,0.193-3.24,0.359-4.853c0.066-0.623,0.255-1.257,0.512-1.829
		c0.413-0.919,1.246-1.33,2.211-1.36c1.539-0.045,3.078-0.045,4.618-0.007c0.897,0.023,1.59,0.531,2.119,1.219
		c0.437,0.572,0.831,1.182,1.201,1.8c0.336,0.558,0.741,0.862,1.44,0.79c0.643-0.066,1.295-0.014,2.078-0.014
		c-0.176-0.374-0.271-0.704-0.463-0.959c-0.605-0.809-0.605-1.889,0.037-2.661c0.627-0.752,1.725-0.965,2.578-0.499
		c0.896,0.487,1.313,1.514,1.004,2.487c-0.047,0.146-0.098,0.306-0.197,0.413c-0.443,0.48-0.514,1.101-0.67,1.689
		c-0.166,0.605-0.316,1.214-0.475,1.821c-0.105,0.411-0.313,0.604-0.633,0.609c-0.324,0.005-0.535-0.193-0.648-0.59
		c-0.094-0.34-0.098-0.815-0.324-0.98c-0.242-0.178-0.701-0.072-1.064-0.077c-0.557-0.007-1.113-0.02-1.668,0.002
		c-0.647,0.027-1.163-0.218-1.551-0.711c-0.345-0.447-0.631-0.943-0.961-1.405c-0.302-0.421-0.604-0.847-0.949-1.233
		c-0.304-0.34-0.723-0.48-1.186-0.48c-1.289,0.001-2.582-0.008-3.871,0.005c-1.133,0.011-1.636,0.403-1.82,1.529
		c-0.14,0.851-0.175,1.719-0.241,2.579c-0.07,0.922-0.125,1.844-0.181,2.765c-0.005,0.068,0.007,0.139,0.014,0.261
		c0.264,0,0.524,0.024,0.774-0.015c0.08-0.012,0.182-0.19,0.189-0.298c0.068-0.993,0.118-1.987,0.175-2.979
		c0.019-0.343,0.047-0.686,0.066-1.029c0.024-0.473,0.255-0.739,0.64-0.727c0.399,0.011,0.616,0.303,0.593,0.799
		c-0.066,1.253-0.137,2.507-0.203,3.76c-0.009,0.141-0.002,0.283-0.002,0.457c1.333,0,2.663,0,4.053,0
		c0-0.104,0.004-0.227-0.003-0.35c-0.063-1.301-0.129-2.601-0.19-3.903c-0.024-0.462,0.211-0.752,0.596-0.761
		c0.372-0.008,0.617,0.26,0.641,0.698c0.068,1.336,0.15,2.671,0.203,4.008c0.008,0.298,0.118,0.353,0.379,0.347
		c0.746-0.014,1.491-0.01,2.237-0.004c1.629,0.016,2.795,1.18,2.799,2.81c0.01,2.818,0.01,5.638,0,8.456
		c-0.004,1.613-1.148,2.783-2.756,2.821c-0.212,0.004-0.302,0.073-0.39,0.263c-0.708,1.502-1.912,2.328-3.56,2.333
		c-1.652,0.004-2.856-0.82-3.578-2.314c-0.073-0.153-0.114-0.286-0.335-0.281c-1.256,0.01-2.511,0.004-3.767,0.006
		c-0.047,0-0.09,0.015-0.158,0.025c-0.085,0.829-0.425,1.521-1.098,2.025c-0.505,0.375-1.074,0.543-1.7,0.52
		c-1.374-0.042-2.268-0.906-2.62-2.545c-0.184-0.027-0.382-0.057-0.576-0.099c-1.206-0.255-2.139-1.313-2.148-2.541
		c-0.021-2.962-0.021-5.924,0.011-8.884c0.005-0.403-0.097-0.652-0.37-0.911c-0.56-0.528-1.095-1.082-1.638-1.627
		c-0.323-0.328-0.358-0.7-0.09-0.972c0.274-0.279,0.623-0.259,0.963,0.083c0.581,0.586,1.152,1.185,1.763,1.815
		c0.914-1.123,2.137-0.992,3.331-0.984c0-5.178,0-10.312,0-15.489c-0.16,0-0.298,0-0.437,0c-2.025,0-4.05,0-6.073-0.001
		c-0.713,0-0.939-0.234-0.93-0.94c0.083-4.634,4.287-8.326,8.895-7.812c4.064,0.454,7.065,3.637,7.277,7.724
		c0.04,0.786-0.191,1.03-0.978,1.03c-2.004,0-4.003,0-6.005,0c-0.139,0-0.281,0-0.446,0
		C-114.566,10.343-114.566,15.476-114.566,20.666z M-99.825,33.484c0.742,0.027,1.425-0.596,1.433-1.46
		c0.02-2.874,0.018-5.754,0.002-8.629c-0.004-0.829-0.654-1.485-1.468-1.486c-5.767-0.01-11.531-0.01-17.297,0.001
		c-0.814,0.001-1.461,0.68-1.463,1.491c-0.007,2.876-0.007,5.754,0,8.629c0.002,0.802,0.642,1.427,1.442,1.477
		c0.217,0.015,0.358-0.037,0.486-0.248c1.062-1.725,3.512-1.721,4.579,0.004c0.104,0.173,0.212,0.249,0.416,0.249
		c1.195-0.009,2.394-0.009,3.588,0c0.264,0.006,0.335-0.085,0.354-0.341c0.109-1.721,1.36-3.162,3.045-3.534
		c1.671-0.368,3.425,0.387,4.219,1.903C-100.187,32.123-100.052,32.796-99.825,33.484z M-108.611,3.76
		c-0.121-2.678-2.618-5.875-6.456-5.958c-4.051-0.086-6.649,3.246-6.768,5.958C-117.427,3.76-113.018,3.76-108.611,3.76z
		 M-103.892,36.111c1.459,0.009,2.66-1.163,2.674-2.617c0.015-1.482-1.152-2.682-2.626-2.696c-1.466-0.019-2.677,1.18-2.682,2.65
		C-106.527,34.906-105.347,36.101-103.892,36.111z M-114.41,36.109c0.798,0.004,1.449-0.638,1.456-1.435
		c0.007-0.785-0.644-1.451-1.433-1.46c-0.789-0.004-1.449,0.646-1.454,1.438C-115.85,35.451-115.204,36.103-114.41,36.109z
		 M-95.671,12.996c-0.457,0.002-0.838,0.38-0.838,0.831c0.002,0.449,0.385,0.83,0.838,0.835c0.48,0.003,0.855-0.375,0.846-0.853
		C-94.835,13.345-95.201,12.994-95.671,12.996z"/>
	<path fill-rule="evenodd" clip-rule="evenodd" d="M-90.001,28.013c0.104-2.438,0.203-4.876,0.307-7.313
		c0.02-0.462,0.277-0.741,0.652-0.727c0.377,0.016,0.625,0.315,0.604,0.768c-0.125,2.971-0.26,5.938-0.387,8.907
		c-0.078,1.798-0.15,3.597-0.221,5.394c-0.008,0.172-0.063,0.401,0.195,0.423c0.268,0.022,0.236-0.217,0.25-0.383
		c0.205-2.479,0.408-4.954,0.607-7.433c0.057-0.713,0.527-1.285,1.189-1.411c0.66-0.128,1.33,0.202,1.613,0.822
		c0.08,0.179,0.123,0.385,0.137,0.585c0.164,2.1,0.316,4.201,0.473,6.303c0.029,0.399,0.047,0.808,0.104,1.203
		c0.02,0.115,0.156,0.212,0.238,0.321c0.068-0.117,0.197-0.242,0.193-0.357c-0.035-1.361-0.088-2.722-0.139-4.081
		c-0.086-2.144-0.172-4.285-0.254-6.424c-0.055-1.315-0.105-2.628-0.156-3.941c-0.01-0.289,0.094-0.546,0.373-0.619
		c0.191-0.052,0.463-0.032,0.617,0.075c0.143,0.099,0.232,0.353,0.248,0.545c0.055,0.756,0.074,1.514,0.102,2.271
		c0.131,3.409,0.256,6.815,0.387,10.223c0.025,0.665,0.059,1.325,0.076,1.988c0.023,0.89-0.582,1.564-1.416,1.595
		c-0.834,0.024-1.459-0.606-1.525-1.494c-0.18-2.482-0.367-4.96-0.566-7.44c-0.008-0.107-0.137-0.206-0.207-0.311
		c-0.078,0.111-0.213,0.219-0.225,0.33c-0.143,1.595-0.273,3.187-0.402,4.779c-0.078,0.934-0.146,1.863-0.23,2.795
		c-0.074,0.796-0.766,1.385-1.559,1.341c-0.789-0.049-1.398-0.705-1.371-1.532c0.053-1.596,0.141-3.195,0.189-4.789
		c0.027-0.804,0.006-1.611,0.006-2.413C-90.068,28.013-90.035,28.013-90.001,28.013z"/>
	<path fill-rule="evenodd" clip-rule="evenodd" d="M-100.893,42.359c-7.447,0-14.894,0-22.341,0c-0.13,0-0.26,0.008-0.393-0.005
		c-0.333-0.033-0.573-0.29-0.581-0.609c-0.007-0.316,0.222-0.581,0.558-0.623c0.129-0.019,0.262-0.015,0.392-0.015
		c14.906,0,29.813,0,44.719,0c0.131,0,0.26-0.004,0.391,0.013c0.336,0.04,0.566,0.299,0.563,0.62
		c-0.004,0.322-0.24,0.576-0.576,0.614c-0.127,0.013-0.258,0.005-0.389,0.005C-85.998,42.359-93.445,42.359-100.893,42.359z"/>
	<path fill-rule="evenodd" clip-rule="evenodd" d="M-86.541,16.546c0.922,0,1.85-0.065,2.764,0.015
		c1.275,0.112,2.07,0.881,2.373,2.109c0.156,0.638,0.23,1.304,0.283,1.961c0.133,1.616,0.227,3.234,0.338,4.853
		c0.002,0.035,0.006,0.071,0.006,0.105c0.02,0.416-0.195,0.7-0.555,0.731c-0.379,0.038-0.662-0.215-0.691-0.638
		c-0.057-0.766-0.098-1.535-0.152-2.301c-0.09-1.24-0.184-2.479-0.281-3.718c-0.016-0.187-0.055-0.375-0.107-0.556
		c-0.275-0.976-0.676-1.331-1.688-1.354c-1.525-0.032-3.055-0.033-4.578,0c-1.049,0.023-1.543,0.444-1.715,1.489
		c-0.154,0.979-0.209,1.975-0.287,2.965c-0.088,1.146-0.148,2.292-0.227,3.437c-0.033,0.454-0.303,0.704-0.699,0.669
		c-0.373-0.034-0.58-0.32-0.549-0.769c0.129-1.899,0.246-3.802,0.402-5.701c0.039-0.49,0.152-0.985,0.303-1.454
		c0.34-1.054,1.094-1.699,2.189-1.819c0.949-0.104,1.912-0.086,2.869-0.122C-86.542,16.483-86.541,16.515-86.541,16.546z"/>
	<path fill-rule="evenodd" clip-rule="evenodd" d="M-83.945,13.246c-0.004,1.416-1.137,2.545-2.549,2.545
		c-1.424,0-2.57-1.154-2.563-2.578c0.006-1.421,1.168-2.56,2.594-2.547C-85.058,10.681-83.937,11.826-83.945,13.246z
		 M-87.791,13.222c-0.006,0.74,0.551,1.314,1.279,1.328c0.73,0.012,1.348-0.597,1.34-1.322c-0.006-0.729-0.609-1.314-1.355-1.311
		C-87.22,11.918-87.789,12.505-87.791,13.222z"/>
	<path fill-rule="evenodd" clip-rule="evenodd" d="M-103.333,9.092c0.006,1.381-1.096,2.493-2.472,2.493
		c-1.374,0.001-2.477-1.105-2.474-2.487c0-1.359,1.098-2.471,2.45-2.481C-104.459,6.608-103.34,7.72-103.333,9.092z
		 M-105.823,10.333c0.689,0.008,1.256-0.548,1.254-1.229c-0.003-0.668-0.55-1.22-1.221-1.228c-0.689-0.007-1.25,0.544-1.25,1.23
		C-107.041,9.781-106.5,10.324-105.823,10.333z"/>
	<path fill-rule="evenodd" clip-rule="evenodd" d="M-93.457,31.273c-0.555,0-1.111,0.004-1.666-0.005
		c-0.445-0.004-0.711-0.239-0.711-0.618c-0.004-0.372,0.262-0.618,0.709-0.622c1.111-0.007,2.223-0.005,3.334,0
		c0.436,0.004,0.717,0.263,0.717,0.622c0,0.364-0.281,0.614-0.715,0.618C-92.343,31.277-92.9,31.271-93.457,31.273z"/>
	<path fill-rule="evenodd" clip-rule="evenodd" d="M-79.841,31.271c-0.41,0-0.826,0.008-1.238-0.003
		c-0.406-0.008-0.67-0.269-0.664-0.626c0.004-0.348,0.252-0.606,0.646-0.61c0.84-0.013,1.676-0.013,2.514,0
		c0.389,0.011,0.631,0.273,0.625,0.629c-0.004,0.354-0.252,0.6-0.641,0.607C-79.015,31.281-79.427,31.271-79.841,31.271z"/>
	<path fill-rule="evenodd" clip-rule="evenodd" d="M-122.502,31.271c-0.352,0-0.706,0.008-1.06-0.003
		c-0.382-0.012-0.64-0.267-0.645-0.614c-0.005-0.336,0.25-0.611,0.633-0.622c0.718-0.013,1.44-0.013,2.158,0
		c0.384,0.011,0.646,0.279,0.649,0.614c0.002,0.349-0.274,0.614-0.673,0.622C-121.794,31.279-122.148,31.271-122.502,31.271z"/>
	<path fill-rule="evenodd" clip-rule="evenodd" d="M-108.427,23.744c2.642,0,5.28,0,7.922,0.003c0.13,0,0.265-0.009,0.387,0.022
		c0.293,0.078,0.473,0.271,0.479,0.583c0.008,0.312-0.149,0.52-0.443,0.607c-0.12,0.036-0.258,0.04-0.386,0.04
		c-5.329,0.003-10.657,0.003-15.987,0c-0.127,0-0.264-0.004-0.385-0.04c-0.309-0.094-0.467-0.313-0.444-0.642
		c0.023-0.313,0.215-0.492,0.507-0.557c0.128-0.027,0.26-0.015,0.392-0.015C-113.731,23.744-111.08,23.744-108.427,23.744z"/>
</g>
<g>
	<path fill-rule="evenodd" clip-rule="evenodd" d="M89.588,10.764c0-7.457-0.003-14.911,0-22.368c0-0.927,0.215-1.14,1.158-1.14
		c11.222,0,22.447,0.003,33.672-0.008c0.53,0,0.917,0.167,1.291,0.543c2.406,2.436,4.832,4.856,7.265,7.269
		c0.338,0.337,0.481,0.691,0.481,1.169c-0.014,6.395-0.014,12.79,0.006,19.185c0,0.224,0.131,0.494,0.286,0.663
		c0.41,0.465,0.872,0.885,1.305,1.326c0.458,0.469,0.465,0.846,0.022,1.314c-0.137,0.143-0.279,0.276-0.416,0.416
		c-0.176,0.182-0.371,0.309-0.215,0.653c0.144,0.322,0.325,0.367,0.631,0.367c1.438-0.006,1.506,0.072,1.506,1.522
		c0,0.748,0.003,1.502-0.004,2.25c-0.003,0.638-0.289,0.917-0.93,0.927c-0.195,0.003-0.391,0.01-0.585-0.003
		c-0.276-0.014-0.475,0.01-0.605,0.338c-0.123,0.309-0.025,0.462,0.176,0.663c1.047,1.044,1.096,1.19-0.02,2.156
		c-0.924,0.797-1.33,1.665-1.184,2.871c0.091,0.758,0.02,1.535,0.02,2.303c-0.003,0.829-0.247,1.069-1.079,1.069
		c-10.413,0-20.818,0-31.23,0c-3.489,0-6.979,0-10.471,0c-0.836,0-1.08-0.243-1.08-1.069C89.585,25.709,89.588,18.236,89.588,10.764
		z M91.168,32.645c13.593,0,27.14,0,40.706,0c0-0.719-0.039-1.407,0.014-2.084c0.045-0.592-0.107-1.041-0.579-1.398
		c-0.201-0.152-0.322-0.318-0.628-0.179c-0.282,0.13-0.406,0.273-0.367,0.579c0.02,0.191,0,0.394,0,0.588
		c-0.007,0.696-0.279,0.963-0.988,0.97c-0.735,0-1.467,0-2.201,0c-1.441,0-1.513-0.068-1.51-1.522c0-0.272-0.009-0.468-0.334-0.602
		c-0.313-0.127-0.476-0.049-0.664,0.173c-0.137,0.162-0.292,0.306-0.448,0.452c-0.449,0.426-0.833,0.429-1.275-0.004
		c-0.536-0.526-1.06-1.06-1.593-1.59c-1.051-1.047-1.054-1.128-0.01-2.179c0.172-0.172,0.341-0.303,0.198-0.614
		c-0.137-0.313-0.306-0.423-0.621-0.384c-0.179,0.02-0.361,0.003-0.536,0c-0.703-0.007-0.982-0.28-0.985-0.97
		c-0.004-0.722,0-1.437,0-2.155c-0.004-1.519,0.042-1.574,1.554-1.571c0.303,0.004,0.452-0.077,0.582-0.363
		c0.137-0.306,0.014-0.449-0.176-0.625c-0.155-0.14-0.306-0.292-0.448-0.448c-0.449-0.469-0.445-0.843,0.013-1.311
		c0.527-0.537,1.061-1.063,1.594-1.591c1.015-1.021,1.118-1.021,2.143,0c0.188,0.189,0.329,0.339,0.657,0.202
		c0.342-0.144,0.36-0.354,0.348-0.644c-0.01-0.228-0.01-0.456,0.003-0.684c0.029-0.497,0.31-0.793,0.804-0.8
		c1.027-0.02,2.055-0.02,3.083-0.006c0.494,0.006,0.786,0.312,0.81,0.8c0.016,0.309-0.004,0.617,0.01,0.93
		c0.01,0.237,0.494,0.553,0.715,0.469c0.303-0.111,0.839-0.892,0.839-1.224c0-5.903,0-11.81,0-17.715c0-0.154,0-0.311,0-0.486
		c-2.309,0-4.539,0.002-6.776,0c-0.8,0-1.054-0.249-1.054-1.048c0-2.071,0-4.143,0-6.214c0-0.174,0-0.35,0-0.53
		c-10.991,0-21.927,0-32.876,0C91.168,3.471,91.168,18.034,91.168,32.645z M120.936,23.283c0.279,0,0.507,0,0.731,0
		c0.667,0.003,0.829,0.137,1.057,0.78c0.137,0.396,0.313,0.787,0.501,1.164c0.205,0.403,0.166,0.761-0.162,1.061
		c-0.215,0.201-0.459,0.363-0.618,0.487c0.436,0.475,0.773,0.836,1.174,1.269c0.201-0.234,0.384-0.462,0.589-0.677
		c0.279-0.293,0.611-0.318,0.981-0.149c0.455,0.208,0.924,0.394,1.396,0.575c0.396,0.153,0.602,0.423,0.598,0.853
		c-0.003,0.289-0.003,0.575-0.003,0.868c0.553,0,1.047,0,1.564,0c0-0.28-0.004-0.521,0-0.768c0.006-0.604,0.159-0.787,0.731-0.992
		c0.43-0.152,0.846-0.341,1.255-0.533c0.371-0.179,0.703-0.146,0.982,0.146c0.211,0.225,0.384,0.481,0.533,0.677
		c0.475-0.449,0.829-0.794,1.226-1.174c-0.179-0.166-0.354-0.335-0.536-0.498c-0.396-0.357-0.455-0.741-0.195-1.223
		c0.202-0.367,0.357-0.768,0.481-1.171c0.156-0.494,0.462-0.722,0.976-0.699c0.254,0.014,0.511,0.004,0.78,0.004
		c0-0.547,0-1.037,0-1.562c-0.273,0-0.517,0-0.761,0c-0.604-0.006-0.794-0.159-0.995-0.728c-0.144-0.397-0.293-0.801-0.491-1.168
		c-0.25-0.465-0.191-0.842,0.192-1.177c0.201-0.173,0.416-0.315,0.572-0.433c-0.449-0.462-0.794-0.816-1.21-1.245
		c-0.144,0.172-0.283,0.377-0.455,0.549c-0.436,0.442-0.667,0.462-1.213,0.198c-0.381-0.182-0.771-0.36-1.171-0.48
		c-0.504-0.153-0.726-0.459-0.706-0.97c0.014-0.257,0.004-0.51,0.004-0.783c-0.543,0-1.037,0-1.562,0
		c0,0.276-0.01,0.521,0.004,0.761c0.025,0.533-0.208,0.846-0.729,1.002c-0.403,0.12-0.8,0.286-1.167,0.487
		c-0.466,0.25-0.846,0.188-1.178-0.198c-0.172-0.198-0.309-0.42-0.413-0.556c-0.468,0.451-0.826,0.793-1.255,1.209
		c0.156,0.127,0.352,0.254,0.514,0.416c0.479,0.476,0.494,0.684,0.201,1.295c-0.182,0.384-0.338,0.773-0.475,1.177
		c-0.146,0.423-0.413,0.647-0.864,0.644c-0.29-0.006-0.579-0.003-0.885-0.003C120.936,22.259,120.936,22.743,120.936,23.283z
		 M130.477-4.925c-1.601-1.603-3.252-3.258-4.826-4.831c0,1.507,0,3.161,0,4.831C127.328-4.925,128.968-4.925,130.477-4.925z"/>
	<path fill-rule="evenodd" clip-rule="evenodd" d="M106.819,28.746c0.536,0,1.021,0,1.534,0c0.01-0.156,0.027-0.299,0.027-0.442
		c0-4.191,0-8.383-0.004-12.578c0-0.8,0.257-1.06,1.047-1.06c0.879,0,1.763,0,2.641,0c0.754,0,1.021,0.267,1.021,1.037
		c0,4.146,0,8.289,0,12.432c0,0.191,0,0.384,0,0.611c1.047,0,2.048,0,3.096,0c0,0.533,0,1.027,0,1.558c-7.799,0-15.603,0-23.436,0
		c0-0.504,0-0.998,0-1.528c1.023,0,2.031,0,3.102,0c0-0.192,0-0.348,0-0.504c0.004-3.132,0.004-6.264,0.004-9.397
		c0-0.833,0.24-1.073,1.076-1.073c0.861,0,1.727,0,2.592,0c0.773,0,1.033,0.26,1.033,1.021c0,3.1,0,6.198,0,9.301
		c0,0.191,0,0.383,0,0.611c0.521,0,1.002,0,1.562,0c0-0.156,0-0.325,0-0.498c0-1.323,0-2.644,0.003-3.964
		c0.004-0.712,0.267-0.985,0.966-0.988c0.942-0.004,1.893-0.007,2.835,0c0.611,0.006,0.898,0.296,0.898,0.907
		C106.822,25.689,106.819,27.191,106.819,28.746z M109.983,16.263c0,4.182,0,8.327,0,12.464c0.526,0,1.021,0,1.509,0
		c0-4.176,0-8.305,0-12.464C110.984,16.263,110.504,16.263,109.983,16.263z M97.451,19.397c0,3.138,0,6.236,0,9.329
		c0.526,0,1.021,0,1.509,0c0-3.128,0-6.218,0-9.329C98.453,19.397,97.971,19.397,97.451,19.397z M105.248,28.739
		c0-0.65,0-1.284,0-1.915c0-0.647,0-1.291,0-1.948c-0.553,0-1.033,0-1.561,0c0,0.657,0,1.288,0,1.919c0,0.65,0,1.294,0,1.944
		C104.234,28.739,104.715,28.739,105.248,28.739z"/>
	<path fill-rule="evenodd" clip-rule="evenodd" d="M92.72-0.992c-0.017-4.688,3.86-8.603,8.529-8.617
		c4.793-0.016,8.695,3.839,8.702,8.594c0.006,4.724-3.863,8.63-8.559,8.637C96.592,7.63,92.736,3.796,92.72-0.992z M95.227-4.39
		c-1.301,1.997-1.359,5.333,0.605,7.791c2.031,2.549,5.326,3.037,7.065,2.405c-0.007-0.045-0.003-0.098-0.017-0.142
		c-0.709-1.977-1.414-3.952-2.126-5.926c-0.049-0.128-0.137-0.268-0.247-0.346C98.752-1.875,96.989-3.131,95.227-4.39z
		 M106.946-5.206c-2.738-3.637-8.062-3.701-10.783-0.493c0.032,0.034,0.056,0.077,0.091,0.104c1.633,1.166,3.259,2.335,4.897,3.484
		c0.117,0.083,0.37,0.077,0.507,0.003c0.768-0.424,1.52-0.881,2.277-1.329C104.93-4.021,105.922-4.604,106.946-5.206z
		 M102.296-0.642c0.716,2.006,1.418,3.97,2.127,5.941c3.548-1.691,4.864-6.045,3.304-9.137
		C105.932-2.783,104.137-1.728,102.296-0.642z"/>
	<path fill-rule="evenodd" clip-rule="evenodd" d="M126.376-0.964c0,0.523,0,1.006,0,1.515c-4.423,0-8.822,0-13.258,0
		c0-0.488,0-0.983,0-1.515C117.518-0.964,121.927-0.964,126.376-0.964z"/>
	<path fill-rule="evenodd" clip-rule="evenodd" d="M126.376,2.953c0,0.522,0,1.005,0,1.514c-4.42,0-8.816,0-13.258,0
		c0-0.486,0-0.982,0-1.514C117.518,2.953,121.927,2.953,126.376,2.953z"/>
	<path fill-rule="evenodd" clip-rule="evenodd" d="M113.099,8.374c0-0.519,0-1.001,0-1.512c4.423,0,8.822,0,13.261,0
		c0,0.484,0,0.979,0,1.512C121.963,8.374,117.554,8.374,113.099,8.374z"/>
	<path fill-rule="evenodd" clip-rule="evenodd" d="M126.379,10.785c0,0.52,0,1.003,0,1.514c-4.423,0-8.822,0-13.261,0
		c0-0.488,0-0.982,0-1.514C117.515,10.785,121.927,10.785,126.379,10.785z"/>
	<path fill-rule="evenodd" clip-rule="evenodd" d="M127.959,19.368c1.73,0,3.142,1.411,3.139,3.141
		c-0.004,1.711-1.408,3.122-3.109,3.129c-1.756,0.006-3.17-1.415-3.164-3.171C124.838,20.763,126.245,19.368,127.959,19.368z
		 M127.959,20.941c-0.878,0.007-1.577,0.726-1.561,1.604c0.02,0.842,0.741,1.531,1.594,1.519c0.849-0.013,1.544-0.731,1.534-1.58
		C129.514,21.628,128.805,20.929,127.959,20.941z"/>
</g>
<g>
	<path fill-rule="evenodd" clip-rule="evenodd" d="M250.56,12.517c-1.853-1.143-2.954-2.741-3.174-4.878
		c-0.176-1.725,0.303-3.294,1.42-4.618c2.408-2.845,6.391-2.894,8.852-0.781c1.646,1.415,2.404,3.233,2.205,5.387
		c-0.199,2.146-1.313,3.762-3.186,4.897c0.293,0.1,0.547,0.182,0.797,0.27c1.305,0.455,2.475,1.145,3.529,2.029
		c0.826,0.691,1.529,1.496,2.131,2.391c0.598,0.889,1.057,1.838,1.385,2.85c0.338,1.055,0.512,2.139,0.537,3.248
		c0,0.068,0.004,0.135,0.01,0.201c0.027,0.453-0.439,0.814-0.74,0.768c-0.322-0.051-0.639-0.254-0.664-0.668
		c-0.02-0.322-0.033-0.648-0.057-0.971c-0.059-0.736-0.209-1.451-0.436-2.156c-0.299-0.936-0.734-1.801-1.285-2.611
		c-0.592-0.871-1.307-1.627-2.148-2.266c-0.654-0.494-1.354-0.926-2.109-1.248c-0.803-0.346-1.635-0.58-2.498-0.711
		c-0.67-0.102-1.342-0.141-2.016-0.102c-0.923,0.053-1.826,0.219-2.708,0.518c-1.071,0.363-2.054,0.891-2.943,1.586
		c-1.019,0.793-1.856,1.748-2.505,2.869c-0.432,0.748-0.768,1.535-0.996,2.361c-0.217,0.783-0.342,1.58-0.354,2.393
		c-0.002,0.143-0.012,0.285-0.029,0.424c-0.047,0.367-0.498,0.623-0.776,0.586c-0.313-0.039-0.622-0.426-0.618-0.748
		c0.015-1.15,0.172-2.275,0.516-3.367c0.301-0.957,0.695-1.873,1.262-2.705c0.345-0.502,0.699-1.008,1.096-1.471
		c0.686-0.797,1.467-1.498,2.377-2.037c0.588-0.346,1.197-0.66,1.814-0.955c0.357-0.172,0.748-0.272,1.123-0.404
		C250.421,12.577,250.469,12.556,250.56,12.517z M253.702,2.184c-2.637-0.062-4.883,2.08-4.938,4.714
		c-0.055,2.687,2.047,4.975,4.849,4.99c2.616,0.015,4.815-2.053,4.87-4.777C258.538,4.494,256.429,2.208,253.702,2.184z"/>
	<path fill-rule="evenodd" clip-rule="evenodd" d="M264.446,9.707c-1.666-1.146-2.527-2.704-2.51-4.692
		c0.012-1.447,0.555-2.722,1.602-3.713c2.537-2.4,5.938-1.896,7.865,0.301c1.994,2.272,1.82,6.071-1.186,8.104
		c0.232,0.087,0.447,0.167,0.658,0.247c0.537,0.203,1.029,0.48,1.514,0.784c0.643,0.402,1.242,0.851,1.785,1.376
		c0.563,0.545,1.041,1.158,1.451,1.822c0.607,0.984,1.023,2.047,1.254,3.18c0.064,0.301,0.098,0.605,0.133,0.908
		c0.033,0.283,0.066,0.568,0.066,0.852c0,0.172-0.035,0.354-0.107,0.504c-0.131,0.27-0.375,0.373-0.67,0.361
		c-0.262-0.014-0.523-0.189-0.586-0.43c-0.049-0.189-0.07-0.387-0.076-0.58c-0.039-1.447-0.453-2.783-1.199-4.018
		c-0.326-0.541-0.715-1.035-1.158-1.49c-0.541-0.555-1.172-0.975-1.818-1.39c-0.631-0.407-1.313-0.693-2.031-0.866
		c-0.588-0.141-1.195-0.226-1.797-0.252c-0.57-0.023-1.152,0.036-1.717,0.111c-0.715,0.095-1.393,0.332-2.047,0.63
		c-0.695,0.318-1.33,0.728-1.912,1.222c-0.307,0.258-0.734,0.217-0.994-0.072c-0.256-0.283-0.256-0.713,0.059-0.968
		c0.436-0.353,0.895-0.681,1.363-0.989c0.582-0.383,1.229-0.631,1.881-0.867C264.313,9.766,264.358,9.745,264.446,9.707z
		 M271.296,5.128c-0.016-2.314-1.898-4.019-4.074-3.965c-2.174,0.053-4.072,1.908-3.854,4.353c0.176,1.966,1.855,3.708,4.197,3.579
		C269.7,8.978,271.3,7.218,271.296,5.128z"/>
	<path fill-rule="evenodd" clip-rule="evenodd" d="M237.034,9.708c-2.994-2.05-3.053-5.571-1.506-7.692
		c1.934-2.652,5.217-2.86,7.396-1.354c1.574,1.088,2.402,2.617,2.383,4.534c-0.019,1.923-0.909,3.413-2.516,4.515
		c0.186,0.071,0.332,0.129,0.479,0.179c1.014,0.36,1.928,0.901,2.77,1.567c0.207,0.163,0.408,0.336,0.414,0.64
		c0.004,0.316-0.135,0.587-0.414,0.694c-0.281,0.109-0.527,0.049-0.785-0.143c-0.482-0.357-0.987-0.695-1.507-0.999
		c-0.648-0.381-1.36-0.617-2.097-0.768c-0.775-0.159-1.559-0.221-2.354-0.161c-1.004,0.077-1.961,0.315-2.863,0.749
		c-0.43,0.206-0.834,0.467-1.233,0.726c-0.7,0.46-1.308,1.03-1.823,1.69c-0.842,1.08-1.404,2.295-1.645,3.646
		c-0.078,0.449-0.096,0.91-0.119,1.369c-0.025,0.525-0.284,0.832-0.747,0.844c-0.33,0.008-0.696-0.326-0.703-0.654
		c-0.004-0.215-0.019-0.43,0.007-0.643c0.115-0.984,0.281-1.959,0.647-2.887c0.292-0.738,0.659-1.438,1.11-2.088
		c0.532-0.766,1.142-1.465,1.899-2.009c0.609-0.438,1.248-0.838,1.896-1.219c0.324-0.189,0.697-0.295,1.05-0.438
		C236.854,9.776,236.938,9.746,237.034,9.708z M239.962,9.105c2.284-0.019,3.994-1.925,3.942-4.062
		c-0.053-2.265-1.984-4.045-4.294-3.873c-2.047,0.153-3.76,1.884-3.657,4.164C236.051,7.485,237.871,9.14,239.962,9.105z"/>
</g>
<g>
	<path fill-rule="evenodd" clip-rule="evenodd" d="M244.812-43.038c4.072,0,8.145,0,12.217,0.001c0.813,0,1.028,0.217,1.028,1.034
		c0,4.715,0,9.431,0,14.146c0,0.755-0.231,0.99-0.982,0.99c-8.157,0.001-16.317,0.003-24.478,0.003
		c-0.778,0-1.006-0.232-1.006-1.014c0-4.716,0-9.432,0-14.146c-0.002-0.78,0.232-1.015,1.003-1.015
		C236.666-43.038,240.739-43.038,244.812-43.038z M256.573-41.535c-7.86,0-15.674,0-23.49,0c0,3.226,0,6.417,0,9.661
		c0.184-0.099,0.328-0.174,0.469-0.258c1.836-1.099,3.681-2.19,5.507-3.311c0.453-0.279,0.813-0.274,1.259,0.019
		c1.928,1.271,3.88,2.508,5.81,3.778c0.312,0.208,0.543,0.205,0.867,0.032c1.538-0.818,3.096-1.601,4.634-2.417
		c0.396-0.211,0.732-0.208,1.117,0.018c1.16,0.683,2.332,1.343,3.502,2.009c0.095,0.055,0.204,0.093,0.326,0.148
		C256.573-35.105,256.573-38.303,256.573-41.535z M256.586-28.35c0-0.504-0.016-0.962,0.006-1.418
		c0.012-0.271-0.095-0.403-0.32-0.53c-1.268-0.711-2.524-1.432-3.779-2.165c-0.235-0.137-0.419-0.149-0.669-0.018
		c-1.566,0.829-3.15,1.624-4.713,2.462c-0.465,0.25-0.831,0.228-1.271-0.061c-1.938-1.279-3.896-2.535-5.855-3.784
		c-0.146-0.093-0.426-0.141-0.559-0.063c-2.056,1.208-4.099,2.439-6.141,3.671c-0.092,0.056-0.208,0.169-0.211,0.259
		c-0.02,0.543-0.011,1.088-0.011,1.646C240.924-28.35,248.722-28.35,256.586-28.35z"/>
	<path fill-rule="evenodd" clip-rule="evenodd" d="M252.178-9.197c0.494,0,0.952,0,1.511,0c-0.046,1.23,0.019,2.479-0.174,3.685
		c-0.204,1.304-1.478,2.171-2.876,2.171c-4.652,0.006-9.31,0-13.965,0c-6.509,0-13.017,0-19.525,0c-1.997,0-3.206-1.209-3.201-3.199
		c0.001-0.617-0.006-1.228,0.003-1.838c0.008-0.571,0.275-0.837,0.854-0.843c1.162-0.006,2.324,0,3.538,0c0-4.896,0-9.769,0-14.675
		c0.515,0,0.979,0,1.476,0c0,4.882,0,9.741,0,14.65c0.18,0.013,0.326,0.024,0.473,0.024c9.295,0,18.591,0,27.889,0
		c0.842,0,1.056,0.214,1.056,1.05c0,0.614-0.006,1.228,0.003,1.838c0.01,0.861,0.632,1.515,1.45,1.523
		c0.837,0.01,1.478-0.644,1.487-1.535C252.184-7.28,252.178-8.213,252.178-9.197z M247.748-7.719c-10.801,0-21.552,0-32.331,0
		c0,0.396,0,0.764,0,1.13c0.002,1.251,0.533,1.779,1.794,1.779c10.163,0,20.325,0,30.491-0.003c0.128,0,0.257-0.009,0.439-0.019
		C247.604-5.762,247.818-6.746,247.748-7.719z"/>
	<path fill-rule="evenodd" clip-rule="evenodd" d="M231.225-23.924c2.969,0.001,5.939,0,8.908,0.001
		c0.788,0,1.015,0.222,1.015,1.001c0.002,2.784,0.002,5.571,0,8.359c-0.001,0.684-0.253,0.931-0.946,0.931
		c-5.985,0-11.97,0-17.954,0c-0.695,0-0.947-0.247-0.947-0.931c-0.002-2.788-0.003-5.575-0.002-8.359
		c0.002-0.779,0.229-1.001,1.018-1.002C225.285-23.926,228.255-23.924,231.225-23.924z M222.793-15.137c5.645,0,11.251,0,16.849,0
		c0-2.454,0-4.879,0-7.293c-5.635,0-11.23,0-16.849,0C222.793-19.995,222.793-17.58,222.793-15.137z"/>
	<path fill-rule="evenodd" clip-rule="evenodd" d="M222.037-25.393c-2.388,0-4.774,0-7.161-0.001c-0.663,0-0.929-0.253-0.929-0.907
		c-0.001-2.832-0.001-5.663,0.001-8.494c0-0.629,0.265-0.889,0.896-0.89c4.791-0.001,9.583-0.001,14.373,0
		c0.651,0.001,0.901,0.261,0.903,0.93c0.001,2.816,0.001,5.632,0.001,8.448c0,0.652-0.267,0.915-0.922,0.915
		C226.813-25.392,224.426-25.393,222.037-25.393z M228.632-34.194c-4.424,0-8.797,0-13.188,0c0,2.447,0,4.871,0,7.299
		c4.412,0,8.795,0,13.188,0C228.632-29.339,228.632-31.752,228.632-34.194z"/>
	<path fill-rule="evenodd" clip-rule="evenodd" d="M250.334-20.984c2.253,0,4.499-0.003,6.752,0c0.727,0,0.971,0.241,0.971,0.956
		c0,2.784,0,5.568,0,8.355c0,0.748-0.231,0.979-0.988,0.979c-4.5,0-9.003,0-13.503,0c-0.697,0-0.946-0.244-0.946-0.928
		c-0.001-2.82-0.001-5.636-0.001-8.45c0-0.653,0.266-0.913,0.922-0.916c2.264,0,4.528,0,6.794,0V-20.984z M256.555-12.182
		c0-2.458,0-4.879,0-7.296c-4.173,0-8.31,0-12.442,0c0,2.448,0,4.859,0,7.296C248.264-12.182,252.392-12.182,256.555-12.182z"/>
	<path fill-rule="evenodd" clip-rule="evenodd" d="M253.612-44.531c-0.458,0-0.913,0-1.386,0c-0.016-0.024-0.043-0.06-0.049-0.098
		c-0.195-0.925-0.696-1.348-1.627-1.348c-8.713-0.001-17.426-0.001-26.14-0.001c-1.011,0-2.021-0.005-3.031,0.001
		c-0.941,0.006-1.547,0.615-1.549,1.56c-0.006,2.251-0.002,4.503-0.002,6.753c0,0.151,0,0.301,0,0.479c-0.498,0-0.962,0-1.471,0
		c0-0.151,0-0.284,0-0.418c0-2.267-0.002-4.532,0.002-6.798c0.003-1.78,1.258-3.045,3.031-3.047c9.738-0.001,19.479-0.001,29.217,0
		C252.33-47.448,253.716-46.102,253.612-44.531z"/>
	<path fill-rule="evenodd" clip-rule="evenodd" d="M221.319-40.129c0-0.484,0-0.936,0-1.415c2.922,0,5.824,0,8.764,0
		c0,0.453,0,0.917,0,1.415C227.185-40.129,224.272-40.129,221.319-40.129z"/>
	<path fill-rule="evenodd" clip-rule="evenodd" d="M252.184-22.493c0-0.968,0-1.899,0-2.867c0.474,0,0.935,0,1.435,0
		c0,0.945,0,1.899,0,2.867C253.136-22.493,252.66-22.493,252.184-22.493z"/>
	<path fill-rule="evenodd" clip-rule="evenodd" d="M222.751-44.486c0,0.484,0,0.937,0,1.419c-0.475,0-0.937,0-1.427,0
		c0-0.472,0-0.934,0-1.419C221.798-44.486,222.249-44.486,222.751-44.486z"/>
	<path fill-rule="evenodd" clip-rule="evenodd" d="M224.259-43.072c0-0.479,0-0.931,0-1.41c0.481,0,0.944,0,1.432,0
		c0,0.472,0,0.923,0,1.41C225.228-43.072,224.763-43.072,224.259-43.072z"/>
	<path fill-rule="evenodd" clip-rule="evenodd" d="M228.619-43.058c-0.487,0-0.938,0-1.415,0c0-0.473,0-0.925,0-1.415
		c0.455,0,0.919,0,1.415,0C228.619-44.021,228.619-43.555,228.619-43.058z"/>
	<path fill-rule="evenodd" clip-rule="evenodd" d="M251.438-37.508c-0.006,1.415-1.153,2.558-2.576,2.557
		c-1.435-0.001-2.583-1.172-2.567-2.612c0.016-1.413,1.175-2.544,2.598-2.534C250.31-40.086,251.445-38.927,251.438-37.508z
		 M248.933-38.625c-0.607-0.035-1.136,0.441-1.166,1.048c-0.027,0.584,0.43,1.105,1.01,1.152c0.604,0.047,1.148-0.419,1.191-1.024
		C250.01-38.05,249.534-38.588,248.933-38.625z"/>
	<path fill-rule="evenodd" clip-rule="evenodd" d="M224.261-16.603c0-0.488,0-0.939,0-1.416c2.922,0,5.824,0,8.764,0
		c0,0.452,0,0.916,0,1.416C230.124-16.603,227.212-16.603,224.261-16.603z"/>
	<path fill-rule="evenodd" clip-rule="evenodd" d="M235.228-19.521c-2.193,0-4.35,0-6.541,0c0-0.474,0-0.938,0-1.435
		c2.168,0,4.347,0,6.541,0C235.228-20.473,235.228-20,235.228-19.521z"/>
	<path fill-rule="evenodd" clip-rule="evenodd" d="M238.183-16.593c-1.208,0-2.396,0-3.617,0c0-0.461,0-0.925,0-1.42
		c1.195,0,2.392,0,3.617,0C238.183-17.555,238.183-17.1,238.183-16.593z"/>
	<path fill-rule="evenodd" clip-rule="evenodd" d="M224.263-20.965c0.971,0,1.912,0,2.887,0c0,0.471,0,0.935,0,1.426
		c-0.956,0-1.91,0-2.887,0C224.263-20.009,224.263-20.461,224.263-20.965z"/>
	<path fill-rule="evenodd" clip-rule="evenodd" d="M236.754-19.545c0-0.479,0-0.932,0-1.41c0.48,0,0.944,0,1.431,0
		c0,0.467,0,0.922,0,1.41C237.728-19.545,237.264-19.545,236.754-19.545z"/>
	<path fill-rule="evenodd" clip-rule="evenodd" d="M223.464-32.512c-0.496,1.487-0.972,2.918-1.469,4.407
		c-0.468-0.157-0.906-0.304-1.391-0.467c0.492-1.48,0.973-2.923,1.467-4.402C222.542-32.819,222.973-32.675,223.464-32.512z"/>
	<path fill-rule="evenodd" clip-rule="evenodd" d="M218.567-32.514c0.357,0.354,0.683,0.675,1.092,1.079
		c-0.348,0.275-0.681,0.539-1.078,0.855c0.412,0.353,0.732,0.627,1.072,0.916c-0.416,0.405-0.748,0.73-1.094,1.067
		c-0.496-0.488-1.01-0.964-1.489-1.474c-0.274-0.295-0.263-0.661,0.014-0.956C217.553-31.526,218.05-31.999,218.567-32.514z"/>
	<path fill-rule="evenodd" clip-rule="evenodd" d="M224.353-31.374c0.467-0.465,0.791-0.786,1.136-1.128
		c0.513,0.505,1.038,0.991,1.523,1.511c0.261,0.279,0.249,0.64-0.013,0.917c-0.482,0.508-0.996,0.986-1.514,1.493
		c-0.317-0.339-0.629-0.67-1.004-1.07c0.305-0.226,0.645-0.476,0.987-0.726c-0.016-0.07-0.03-0.142-0.046-0.212
		C225.081-30.839,224.739-31.091,224.353-31.374z"/>
	<path fill-rule="evenodd" clip-rule="evenodd" d="M248.518-16.609c0-0.477,0-0.928,0-1.407c2.194,0,4.374,0,6.575,0
		c0,0.467,0,0.919,0,1.407C252.919-16.609,250.743-16.609,248.518-16.609z"/>
	<path fill-rule="evenodd" clip-rule="evenodd" d="M248.521-13.663c0-0.485,0-0.94,0-1.42c2.186,0,4.353,0,6.557,0
		c0,0.458,0,0.922,0,1.42C252.91-13.663,250.736-13.663,248.521-13.663z"/>
	<path fill-rule="evenodd" clip-rule="evenodd" d="M247.006-18.016c0,0.467,0,0.919,0,1.407c-0.458,0-0.922,0-1.416,0
		c0-0.452,0-0.916,0-1.407C246.06-18.016,246.521-18.016,247.006-18.016z"/>
	<path fill-rule="evenodd" clip-rule="evenodd" d="M247.03-15.07c0,0.427,0,0.824,0,1.221c0,0.055-0.015,0.116-0.024,0.195
		c-0.47,0-0.922,0-1.41,0c0-0.458,0-0.922,0-1.416C246.048-15.07,246.512-15.07,247.03-15.07z"/>
</g>
<path fill-rule="evenodd" clip-rule="evenodd" d="M85.231-86.117c-1.939,0-3.879,0-5.819,0c-0.367,0-0.734,0-1.102-0.001
	c-0.279-0.001-0.424-0.145-0.424-0.426c-0.001-1.725,0-3.449,0-5.173c0-1.293-0.001-2.587-0.001-3.88
	c0-0.311,0.147-0.458,0.46-0.458c3.055,0.001,6.11,0.003,9.166,0.003c1.103,0,2.204-0.004,3.307-0.005c0.444,0,0.89,0,1.335,0.002
	c0.291,0.001,0.438,0.144,0.438,0.431c0.001,1.7,0.001,3.4,0.001,5.1c0,1.313,0.002,2.625-0.004,3.938
	c0,0.114-0.039,0.241-0.097,0.339c-0.069,0.119-0.206,0.129-0.34,0.129c-1.964-0.002-3.928-0.001-5.892-0.001
	C85.918-86.118,85.575-86.118,85.231-86.117C85.231-86.117,85.231-86.117,85.231-86.117z M91.243-95.286c-4.017,0-7.992,0-12.005,0
	c2.016,1.878,4.005,3.733,6.003,5.596C87.239-91.553,89.229-93.408,91.243-95.286z M83.766-90.021
	c-1.435,1.042-2.857,2.078-4.305,3.13c3.866,0,7.696,0,11.562,0c-1.456-1.058-2.879-2.093-4.308-3.131
	c-0.401,0.375-0.794,0.742-1.188,1.106c-0.19,0.176-0.386,0.173-0.574,0c-0.181-0.166-0.357-0.335-0.537-0.501
	C84.202-89.617,83.987-89.816,83.766-90.021z M91.828-87.248c0-2.522,0-5.016,0-7.541c-1.528,1.423-3.033,2.826-4.546,4.235
	C88.798-89.45,90.3-88.358,91.828-87.248z M78.654-87.248c1.526-1.109,3.03-2.203,4.544-3.304c-1.519-1.416-3.02-2.815-4.544-4.235
	C78.654-92.263,78.654-89.772,78.654-87.248z"/>
<g>
	<path fill-rule="evenodd" clip-rule="evenodd" d="M64.296-83.327c-1.474,0-2.948,0-4.422,0c-0.776-0.24-1.056-0.782-1.026-1.571
		c0.033-0.927,0.007-1.856,0.007-2.785c0-1.852,0-3.704,0.001-5.555c0-0.097,0.004-0.194,0.016-0.29
		c0.073-0.604,0.555-1.037,1.162-1.038c1.367-0.002,2.734,0.001,4.102-0.003c0.491-0.001,0.832,0.236,1.043,0.655
		c0.09,0.176,0.112,0.386,0.165,0.58c0,2.792,0,5.585,0,8.377c-0.035,0.274-0.038,0.557-0.112,0.819
		C65.099-83.677,64.713-83.476,64.296-83.327z M59.519-85.99c1.722,0,3.417,0,5.122,0c0-1.999,0-3.969,0-5.937
		c-1.721,0-3.42,0-5.122,0C59.519-89.943,59.519-87.987,59.519-85.99z M59.51-92.644c1.73,0,3.428,0,5.15,0
		c0-0.259,0.006-0.499-0.002-0.739c-0.01-0.332-0.213-0.552-0.545-0.554c-1.355-0.008-2.711-0.008-4.066,0
		c-0.315,0.002-0.521,0.223-0.535,0.536C59.502-93.16,59.51-92.917,59.51-92.644z M64.656-85.296c-1.736,0-3.428,0-5.146,0
		c0,0.257-0.006,0.497,0.001,0.737c0.01,0.33,0.21,0.542,0.539,0.568c0.145,0.012,0.29,0.004,0.437,0.004
		c1.172,0,2.344,0.002,3.517-0.001c0.378-0.001,0.625-0.179,0.648-0.484C64.672-84.739,64.656-85.01,64.656-85.296z"/>
	<path fill-rule="evenodd" clip-rule="evenodd" d="M62.086-84.332c-0.154,0-0.311,0.009-0.465-0.001
		c-0.2-0.014-0.332-0.127-0.333-0.331s0.132-0.325,0.331-0.333c0.31-0.012,0.619-0.012,0.93,0c0.197,0.008,0.334,0.124,0.334,0.33
		c0,0.204-0.133,0.317-0.332,0.332C62.396-84.323,62.24-84.332,62.086-84.332z"/>
</g>
<g>
	<path fill-rule="evenodd" clip-rule="evenodd" d="M228.718,50.921c-1.125-0.264-2.338-0.35-3.354-0.838
		c-1.625-0.783-3.176-1.764-4.649-2.814c-0.664-0.477-1.224-0.793-2.057-0.785c-6.775,0.031-13.544,0.018-20.315,0.018
		c-0.415,0-0.834,0-1.291,0c0-2.324-0.141-4.578,0.043-6.803c0.154-1.904,1.402-3.158,3.191-3.848
		c1.738-0.672,3.465-1.367,5.188-2.07c0.555-0.225,1.096-0.479,1.623-0.76c2.353-1.256,2.895-3.541,1.383-5.746
		c-1.945-2.826-2.771-5.97-2.623-9.465c-0.975-0.099-1.087-0.766-0.978-1.568c0.204-1.533,0.288-3.09,0.63-4.592
		c1.11-4.887,4.359-7.662,9.162-8.442c4.979-0.809,9.43,0.232,12.365,4.832c1.963,3.08,2.666,6.49,2.26,10.102
		c-0.234,2.147-0.637,4.278-0.969,6.413c1.176,0.123,2.549,0.141,3.867,0.432c6.463,1.414,10.184,7.271,10.123,12.861
		c-0.053,5.014-3.881,11.793-10.27,12.789c-0.479,0.076-0.949,0.189-1.426,0.285C229.987,50.921,229.351,50.921,228.718,50.921z
		 M240.151,37.745c-0.018-5.973-4.93-10.932-10.863-10.963c-5.838-0.031-10.826,4.984-10.83,10.883
		c-0.004,6.186,4.926,10.959,11.271,10.92C235.239,48.554,240.173,43.423,240.151,37.745z M208.054,18.141
		c0.014-0.038-0.057,0.126-0.066,0.295c-0.021,0.316-0.039,0.636-0.011,0.952c0.296,3.299,1.501,6.217,3.73,8.672
		c1.409,1.549,2.971,2.906,5.095,3.418c0.594,0.141,0.96,0.039,1.309-0.533c1.504-2.488,3.67-4.229,6.328-5.396
		c0.305-0.133,0.711-0.295,0.842-0.559c1.422-2.774,2.291-5.587,0.775-8.652c-1.174-2.381-2.83-3.154-5.352-2.301
		c-0.53,0.181-1.02,0.473-1.529,0.707c-1.402,0.647-2.753,1.475-4.223,1.896C212.737,17.278,210.444,17.638,208.054,18.141z
		 M225.071,9.22c-1.674-3.622-7.219-4.887-11.191-3.615c-4.426,1.42-7.155,5.436-6.613,9.964c0.268,0,0.541,0,0.815,0
		c3.46-0.006,6.666-0.952,9.694-2.566c1.634-0.872,3.297-1.557,5.203-1.487c0.246,0.007,0.572-0.197,0.738-0.401
		C224.194,10.518,224.614,9.87,225.071,9.22z M213.222,44.142c0.563-1.836,0.887-6.811,0.458-7.746
		c-0.731,1.182-1.287,0.699-1.917-0.102c-0.664-0.846-1.438-1.6-1.919-2.125c-3.108,1.273-5.974,2.486-8.878,3.615
		c-1.09,0.426-1.871,1.117-1.99,2.232c-0.148,1.34-0.035,2.711-0.035,4.125C203.751,44.142,208.493,44.142,213.222,44.142z
		 M217.744,44.134c-0.511-1.6-1.017-3.17-1.565-4.883c-0.203,1.67-0.396,3.238-0.597,4.883
		C216.39,44.134,217.072,44.134,217.744,44.134z M211.316,30.767c-0.565,1.779,0.918,2.391,1.659,3.508
		c0.521-0.484,0.965-0.9,1.41-1.316C213.31,32.188,212.354,31.505,211.316,30.767z M226.259,11.161
		c-0.295,0.503-0.451,0.767-0.633,1.081c0.393,0.334,0.736,0.632,1.084,0.928c0.057-0.039,0.105-0.078,0.158-0.116
		C226.688,12.501,226.517,11.952,226.259,11.161z"/>
	<path fill-rule="evenodd" clip-rule="evenodd" d="M227.593,39.884c2.061-1.984,4.068-3.914,6.072-5.842
		c0.277-0.266,0.555-0.541,0.854-0.787c0.838-0.699,1.701-0.695,2.363-0.006c0.65,0.678,0.615,1.574-0.127,2.352
		c-0.559,0.584-1.152,1.139-1.736,1.699c-1.982,1.906-3.963,3.818-5.963,5.705c-1.15,1.088-1.861,1.059-2.982-0.059
		c-1.072-1.07-2.148-2.141-3.209-3.229c-0.813-0.834-0.877-1.709-0.195-2.418c0.736-0.76,1.596-0.717,2.498,0.154
		C225.95,38.214,226.71,38.997,227.593,39.884z"/>
</g>
</svg>
